<?xml version="1.0" encoding="utf-8"?>
<svg xmlns="http://www.w3.org/2000/svg" style="enable-background:new 0 0 512 512;" version="1.1" viewBox="0 0 512 512" x="0px" y="0px">
<g id="_x32_4_x2C__Github_x2C__logo_x2C__brands_and_logotypes_x2C__brands_x2C__logos_x2C__logotype_x2C__social_network_x2C__social_media">
	<g>
		<g>
			<path d="M512,261.554C512,120.185,397.368,5.571,255.99,5.571C114.63,5.571,0,120.185,0,261.554&#xD;&#xA;				c0,115.353,76.308,212.878,181.182,244.875l0.37-0.513c0,0,8.452,0,11.628-7.391v-50.734c0,0-34.53,5.283-50.391-0.697&#xD;&#xA;				c-15.843-5.991-27.101-14.795-39.081-44.029c-11.997-29.245-31.017-23.96-33.117-34.537c-2.117-10.56,20.414-5.982,28.159-1.404&#xD;&#xA;				c7.781,4.587,13.762,11.628,20.096,19.373c6.352,7.754,15.138,29.597,45.449,29.597c0,0,14.08,2.461,20.784-0.706&#xD;&#xA;				c6.688-3.176,9.51-4.931,11.258-5.285c0,0-3.512-21.137,13.391-35.93c0,0-110.626-1.756-114.843-115.195&#xD;&#xA;				c0,0-0.705-47.912,27.489-76.794c0,0-10.567-34.766,0.706-66.702c0,0,34.282-4.226,69.974,26.774&#xD;&#xA;				c0,0,24.437-10.329,62.001-10.329c37.581,0,67.186,10.806,67.186,10.806s22.531-22.548,68.087-27.718&#xD;&#xA;				c0,0,11.292,25.83,1.888,65.759c0,0,26.764,25.363,26.764,72.33s-15.95,112.258-115.548,120.249c0,0,16.903,22.549,16.903,42.266&#xD;&#xA;				c0,19.735-0.918,76.097-0.918,76.097s-0.07,10.842,12.139,14.495C436.061,473.964,512,376.643,512,261.554z"/>
		</g>
	</g>
</g>
<g id="Layer_1">
</g>
</svg>