<?xml version="1.0" encoding="utf-8"?>
<svg xmlns="http://www.w3.org/2000/svg" style="enable-background:new 0 0 512 512;" version="1.1" viewBox="0 0 512 512" x="0px" y="0px">
<g id="_x36_4_x2C__Twitter_x2C__logo_x2C__brands_and_logotypes_x2C__brands_x2C__logos_x2C__logotype_x2C__social_network_x2C__social_media">
	<g>
		<g>
			<path d="M503.677,104.719c-18.21,7.964-37.784,13.318-58.358,15.736&#xD;&#xA;				c21.003-12.375,37.085-31.971,44.703-55.361c-19.632,11.485-41.415,19.815-64.568,24.301&#xD;&#xA;				c-18.51-19.443-44.929-31.595-74.155-31.595c-64.78,0-113.739,59.131-99.015,122.842c-84.449-4.17-159.347-44.014-209.46-104.533&#xD;&#xA;				c-26.935,45.555-13.328,104.058,31.443,133.555c-16.637-0.518-32.332-5.02-46.037-12.506c0,12.878,1.925,24.802,6.954,37.508&#xD;&#xA;				c12.415,31.373,40.358,55.073,74.585,61.875c-15.194,4.002-30.651,4.597-45.92,1.684c12.961,39.738,50.483,68.68,94.938,69.474&#xD;&#xA;				c-43.886,33.874-98.006,47.532-150.497,41.445c45.016,28.38,98.46,44.943,155.804,44.943&#xD;&#xA;				c158.881,0,256.51-110.067,282.266-224.252c5.665-25.089,7.712-49.124,6.641-73.331&#xD;&#xA;				C472.84,142.405,490.081,124.788,503.677,104.719z" id="XMLID_37_" style="fill:#75C3ED;"/>
			<path d="M4.404,415.311c-2.88-1.816-4.12-5.382-2.988-8.593c1.134-3.21,4.326-5.207,7.717-4.818&#xD;&#xA;				c43.99,5.105,89.818-3.965,129.617-29.076c-38.015-7.673-69.644-34.972-81.831-72.338c-0.799-2.452-0.244-5.145,1.461-7.081&#xD;&#xA;				c1.703-1.938,4.301-2.831,6.839-2.343c4.054,0.773,8.152,1.285,12.236,1.527c-22.108-11.942-39.564-31.275-49.049-55.241&#xD;&#xA;				c-4.954-12.516-7.467-25.62-7.467-38.945v-1.246c0-5.517,5.926-9.059,10.786-6.398c5.732,3.13,11.796,5.661,18.058,7.555&#xD;&#xA;				c-31.777-34.711-37.02-85.685-13.234-125.917c2.543-4.304,8.641-4.865,11.893-0.938c48.421,58.476,119.063,95.06,194.98,101.295&#xD;&#xA;				c-9.097-65.625,42.756-122.245,107.878-122.245c28.621,0,56.292,11.235,76.562,30.954c20.649-4.416,40.305-12.031,58.479-22.662&#xD;&#xA;				c5.763-3.375,12.689,2.185,10.614,8.552c-4.943,15.179-13.22,28.958-24.114,40.446c9.563-2.553,18.889-5.813,27.914-9.761&#xD;&#xA;				c6.679-2.918,13.044,4.74,8.959,10.77c-13.425,19.816-29.992,37.065-49.281,51.316c2.607,88.147-36.894,174.186-100.464,230.13&#xD;&#xA;				C264.824,473.984,116.419,485.928,4.404,415.311z M38.645,417.752c38.888,19.072,81.715,29.043,125.452,29.043&#xD;&#xA;				c156.017,0,250.614-109.774,275.153-218.565c5.624-24.909,7.498-48.356,6.47-71.401c-0.11-2.474,1.042-4.833,3.06-6.267&#xD;&#xA;				c12.445-8.845,23.72-18.999,33.697-30.333c-11.787,3.515-23.926,6.014-36.306,7.468c-3.412,0.413-6.66-1.648-7.76-4.916&#xD;&#xA;				c-1.101-3.267,0.238-6.857,3.208-8.607c13.814-8.14,25.172-19.506,33.143-32.948c-15.255,6.971-31.302,12.108-47.921,15.328&#xD;&#xA;				c-2.441,0.471-4.953-0.33-6.668-2.13c-17.746-18.64-42.848-29.331-68.874-29.331c-59.701,0-105.633,54.518-91.911,113.908&#xD;&#xA;				c1.089,4.7-2.618,9.155-7.462,8.925c-79.812-3.94-154.855-39.818-207.595-98.884c-18.283,40.861-4.483,89.214,33.949,114.536&#xD;&#xA;				c6.047,3.983,3.21,13.517-4.238,13.377c-12.982-0.404-25.882-3.144-37.905-8.003c0.92,7.845,2.87,15.558,5.829,23.033&#xD;&#xA;				c11.739,29.664,37.618,51.125,69.225,57.405c3.33,0.662,5.762,3.535,5.867,6.928c0.104,3.394-2.148,6.41-5.43,7.274&#xD;&#xA;				c-11.971,3.156-24.187,4.348-36.414,3.466c15.118,31.713,47.407,52.703,83.706,53.352c6.872,0.123,9.765,8.863,4.324,13.062&#xD;&#xA;				C127.238,401.262,84.277,416.508,38.645,417.752z"/>
		</g>
	</g>
</g>
<g id="Layer_1">
</g>
</svg>