<?xml version="1.0" encoding="utf-8"?>
<svg xmlns="http://www.w3.org/2000/svg" style="enable-background:new 0 0 512 512;" version="1.1" viewBox="0 0 512 512" x="0px" y="0px">
<g id="_x34_3_x2C__Youtube_x2C__logo_x2C__brands_and_logotypes_x2C__brands_x2C__logos_x2C__logotype_x2C__social_network_x2C__social_media">
	<g>
		<g>
			<path d="M506.853,149.295c0,0-4.988-36.816-20.321-53.009c-19.479-21.234-41.3-21.37-51.269-22.601&#xD;&#xA;				c-98.156-7.35-269.08-6.71-358.5,0.026c-10.007,1.205-31.798,1.341-51.31,22.59c-15.315,16.196-20.318,53.013-20.318,53.013&#xD;&#xA;				S0,192.493,0,235.711c0,10.163,0,29.961,0,40.475c0,43.236,5.135,86.434,5.135,86.434s5.004,36.794,20.318,52.983&#xD;&#xA;				c19.512,21.268,45.116,20.59,56.476,22.797c59.981,5.985,245.825,7.862,353.334-0.188c9.969-1.251,31.79-1.341,51.269-22.628&#xD;&#xA;				c15.334-16.189,20.321-52.975,20.321-52.975S512,319.421,512,276.185c0-25.123,0-26.436,0-40.475&#xD;&#xA;				C512,192.493,506.853,149.295,506.853,149.295z M341.437,250.585l-138.28,74.714c0-0.123-0.038-149.854-0.038-149.989&#xD;&#xA;				C207.337,177.605,336.961,248.149,341.437,250.585z" style="fill:#C52F36;"/>
		</g>
	</g>
</g>
<g id="Layer_1">
</g>
</svg>